<?xml version="1.0" encoding="utf-8"?>
<!-- Generator: Adobe Illustrator 27.3.1, SVG Export Plug-In . SVG Version: 6.00 Build 0)  -->
<svg version="1.1" id="Layer_1" xmlns="http://www.w3.org/2000/svg" xmlns:xlink="http://www.w3.org/1999/xlink" x="0px" y="0px"
	 viewBox="0 0 100 100" style="enable-background:new 0 0 100 100;" xml:space="preserve">
<style type="text/css">
	.st0{fill:#C92A2A;}
	.st1{fill:none;}
	.st2{enable-background:new    ;}
	.st3{fill:#FFFFFF;}
</style>
<circle class="st0" cx="50" cy="50" r="49.6"/>
<rect x="3.4" y="26.7" class="st1" width="100" height="54"/>
<g class="st2">
	<path class="st3" d="M10,32.4c5.2-0.7,10.7-2.4,16.5-4.9l4.9,6c-3.4,3.6-5.9,7.5-7.3,11.8c-1.4,4.4-1.7,8.5-0.9,12
		c1,3.9,3.1,6.1,6.4,6.7c3.1,0.6,6-0.4,8.6-3c3.1-3,4.2-7.8,3-14.4c-1-5.2-3.1-10.5-6.2-15.9l7.1-4.3c4,7,8.9,12.6,14.6,16.8
		l-4.1,7.3c-2-1.7-3.7-3.4-5.2-4.9c0.9,3.4,1.3,6.3,1.3,8.6c0,3.3-0.8,6.2-2.4,8.8c-2.1,3.9-5.5,6.5-10.1,7.9
		c-4.7,1.6-9,1.4-12.9-0.6c-5.4-2.6-8.2-7.2-8.4-14c-0.1-6,1.7-12,5.6-18c-2.9,0.9-5.7,1.5-8.6,1.9L10,32.4z M53.6,35
		c-1.7,0-3.1-0.6-4.1-1.7c-0.9-1-1.3-2.1-1.3-3.4c0-1.4,0.4-2.6,1.3-3.7c1-1.1,2.3-1.7,3.9-1.7c1.6,0.1,2.9,0.7,3.9,1.7
		c0.9,1,1.3,2.1,1.3,3.4c0,1.4-0.4,2.7-1.3,3.7C56.4,34.4,55.2,35,53.6,35z M54.9,31.4c0.4-0.4,0.6-0.9,0.6-1.5
		c0-0.6-0.2-1.1-0.6-1.5s-0.9-0.6-1.5-0.6c-0.6,0-1.1,0.2-1.5,0.6s-0.6,0.9-0.6,1.5c0,0.6,0.2,1.1,0.6,1.5s0.9,0.6,1.5,0.6
		C54,32,54.5,31.8,54.9,31.4z"/>
</g>
<g class="st2">
	<path class="st3" d="M68.6,55.8l-0.4-21.7l7.7,0.4l-0.2,7.7c4.6-0.4,9.1-1,13.5-1.7v7.5l-13.3,1.3v7.5c4.6,1.3,9.5,3.5,14.8,6.7
		L86.5,70c-2.9-2.4-6.3-4.4-10.3-6c0,3.2-0.9,5.2-2.6,6.2c-2.7,1.6-5.9,2.1-9.7,1.7c-4-0.4-6.8-1.9-8.4-4.3
		c-2.1-3.6-1.7-6.7,1.3-9.2S63.8,55,68.6,55.8z M68.8,62.1c-1.3-0.4-2.6-0.6-3.9-0.4c-1.6,0-2.6,0.4-3,1.3c-0.6,1-0.3,1.8,0.9,2.4
		c1,0.4,2,0.6,3,0.6c1.4-0.1,2.4-0.6,2.8-1.3C68.8,64.2,68.8,63.4,68.8,62.1z"/>
</g>
</svg>
