<?xml version="1.0" encoding="utf-8"?>
<!-- Generator: Adobe Illustrator 27.3.1, SVG Export Plug-In . SVG Version: 6.00 Build 0)  -->
<svg version="1.1" id="Layer_1" xmlns="http://www.w3.org/2000/svg" xmlns:xlink="http://www.w3.org/1999/xlink" x="0px" y="0px"
	 viewBox="0 0 100 100" style="enable-background:new 0 0 100 100;" xml:space="preserve">
<style type="text/css">
	.st0{fill:#C92A2A;}
	.st1{fill:none;}
	.st2{enable-background:new    ;}
	.st3{fill:#FFFFFF;}
</style>
<circle class="st0" cx="50" cy="50" r="49.6"/>
<rect x="1.7" y="28.2" class="st1" width="100" height="54"/>
<g class="st2">
	<path class="st3" d="M28.1,33.7c5.2-0.7,10.7-2.4,16.5-4.9l4.9,6c-3.4,3.6-5.9,7.5-7.3,11.8c-1.4,4.4-1.7,8.5-0.9,12
		c1,3.9,3.1,6.1,6.4,6.7c3.1,0.6,6-0.4,8.6-3c3.1-3,4.2-7.8,3-14.4c-1-5.2-3.1-10.5-6.2-15.9l7.1-4.3c4,7,8.9,12.6,14.6,16.8
		l-4.1,7.3c-2-1.7-3.7-3.4-5.2-4.9c0.9,3.4,1.3,6.3,1.3,8.6c0,3.3-0.8,6.2-2.4,8.8c-2.1,3.9-5.5,6.5-10.1,7.9
		c-4.7,1.6-9,1.4-12.9-0.6c-5.4-2.6-8.2-7.2-8.4-14c-0.1-6,1.7-12,5.6-18c-2.9,0.9-5.7,1.5-8.6,1.9L28.1,33.7z M64.6,31.4l3.4-2.1
		l3.7,5.6l-3.4,2.4L64.6,31.4z M69.3,28.6l3.4-2.4l3.7,5.4L73,34L69.3,28.6z"/>
</g>
</svg>
