<?xml version="1.0" encoding="utf-8"?>
<!-- Generator: Adobe Illustrator 27.3.1, SVG Export Plug-In . SVG Version: 6.00 Build 0)  -->
<svg version="1.1" id="Layer_1" xmlns="http://www.w3.org/2000/svg" xmlns:xlink="http://www.w3.org/1999/xlink" x="0px" y="0px"
	 viewBox="0 0 100 100" style="enable-background:new 0 0 100 100;" xml:space="preserve">
<style type="text/css">
	.st0{fill:#C92A2A;}
	.st1{fill:none;}
	.st2{enable-background:new    ;}
	.st3{fill:#FFFFFF;}
</style>
<circle class="st0" cx="50" cy="50" r="49.6"/>
<rect x="1.7" y="28.2" class="st1" width="100" height="54"/>
<g class="st2">
	<path class="st3" d="M42.2,28.4v16.8c8.4-2,16-5,22.6-9l5.8,5.6c-8,5-17.5,8.8-28.4,11.4V61c0,2.1,1.2,3.2,3.7,3.2
		c6.7,0,15-0.1,24.9-0.2l-1.1,7.7H42.5c-2.9,0-4.9-0.6-6.2-1.9c-1.1-1.3-1.7-3.4-1.7-6.2V28.4H42.2z M70.2,37.4
		c-1.6,0-2.9-0.6-4.1-1.7c-0.9-0.9-1.3-1.9-1.3-3.2c0-1.4,0.4-2.6,1.1-3.4c1.1-1.3,2.5-1.9,4.1-1.9c1.6,0,2.9,0.6,4.1,1.9
		c0.7,0.9,1.1,1.9,1.1,3.2c0,1.4-0.4,2.6-1.3,3.4C73,36.7,71.7,37.3,70.2,37.4z M71.5,33.7c0.4-0.4,0.6-0.9,0.6-1.5
		c0-0.6-0.2-1.1-0.6-1.5s-0.9-0.6-1.5-0.6c-0.6,0-1.1,0.2-1.5,0.6s-0.6,0.9-0.6,1.5c0,0.6,0.2,1.1,0.6,1.5s0.9,0.6,1.5,0.6
		C70.5,34.4,71,34.2,71.5,33.7z"/>
</g>
</svg>
